<mxfile host="Electron" modified="2023-12-31T19:09:32.825Z" agent="Mozilla/5.0 (X11; Linux x86_64) AppleWebKit/537.36 (KHTML, like Gecko) draw.io/22.1.16 Chrome/120.0.6099.109 Electron/28.1.0 Safari/537.36" version="22.1.16" etag="B5hrplBVtba7XIm42VlY" type="device">
  <diagram id="nt2FMspgKG4X8vSqgLwy" name="Page-1">
    <mxGraphModel dx="1834" dy="1283" grid="1" gridSize="10" guides="1" tooltips="1" connect="1" arrows="1" fold="1" page="0" pageScale="1" pageWidth="4500" pageHeight="4500" background="none" math="0" shadow="0">
      <root>
        <mxCell id="0" />
        <mxCell id="1" parent="0" />
        <mxCell id="node0" value="&lt;p style=&quot;margin:0px;margin-top:4px;text-align:center;&quot;&gt;&lt;b&gt;AuthenticationController&lt;/b&gt;&lt;/p&gt;&lt;hr size=&quot;1&quot;/&gt;&lt;p style=&quot;margin:0 0 0 4px;line-height:1.6;&quot;&gt;- context: DbContext&lt;/p&gt;&lt;hr size=&quot;1&quot;/&gt;&lt;p style=&quot;margin:0 0 0 4px;line-height:1.6;&quot;&gt;+ register(User): void&lt;/p&gt;" style="verticalAlign=top;align=left;overflow=fill;fontSize=14;fontFamily=Helvetica;html=1;rounded=0;shadow=0;comic=0;labelBackgroundColor=none;strokeWidth=1;" parent="1" vertex="1">
          <mxGeometry x="177" y="77" width="386" height="143" as="geometry" />
        </mxCell>
        <mxCell id="node3" value="&lt;p style=&quot;margin:0px;margin-top:4px;text-align:center;&quot;&gt;&lt;b&gt;CategoryController&lt;/b&gt;&lt;/p&gt;&lt;hr size=&quot;1&quot;/&gt;&lt;p style=&quot;margin:0 0 0 4px;line-height:1.6;&quot;&gt;- context: DbContext&lt;/p&gt;&lt;hr size=&quot;1&quot;/&gt;&lt;p style=&quot;margin:0 0 0 4px;line-height:1.6;&quot;&gt;+ getCategoryById(int): Category&lt;br/&gt;+ getProductsByCategory(int): List&amp;lt;Product&amp;gt;&lt;br/&gt;+ getAllCategories(): List&amp;lt;Category&amp;gt;&lt;br/&gt;+ addCategory(Category): void&lt;br/&gt;+ removeCategory(int): void&lt;/p&gt;" style="verticalAlign=top;align=left;overflow=fill;fontSize=14;fontFamily=Helvetica;html=1;rounded=0;shadow=0;comic=0;labelBackgroundColor=none;strokeWidth=1;" parent="1" vertex="1">
          <mxGeometry x="-335" y="-261" width="530" height="288" as="geometry" />
        </mxCell>
        <mxCell id="node2" value="&lt;p style=&quot;margin:0px;margin-top:4px;text-align:center;&quot;&gt;&lt;b&gt;NotificationController&lt;/b&gt;&lt;/p&gt;&lt;hr size=&quot;1&quot;/&gt;&lt;p style=&quot;margin:0 0 0 4px;line-height:1.6;&quot;&gt;- notificationProcessor: NotificationProcessor&lt;br/&gt;- dbContext: DbContext&lt;/p&gt;&lt;hr size=&quot;1&quot;/&gt;&lt;p style=&quot;margin:0 0 0 4px;line-height:1.6;&quot;&gt;+ getMostNotifiedEmail(): String&lt;br/&gt;+ getNotificationQueueContent(): List&amp;lt;Notification&amp;gt;&lt;br/&gt;+ getMostNotifiedPhoneNumber(): String&lt;br/&gt;+ getMostSentTemplate(): String&lt;/p&gt;" style="verticalAlign=top;align=left;overflow=fill;fontSize=14;fontFamily=Helvetica;html=1;rounded=0;shadow=0;comic=0;labelBackgroundColor=none;strokeWidth=1;" parent="1" vertex="1">
          <mxGeometry x="-7" y="619" width="347" height="191" as="geometry" />
        </mxCell>
        <mxCell id="node1" value="&lt;p style=&quot;margin:0px;margin-top:4px;text-align:center;&quot;&gt;&lt;b&gt;OrderController&lt;/b&gt;&lt;/p&gt;&lt;hr size=&quot;1&quot;/&gt;&lt;p style=&quot;margin:0 0 0 4px;line-height:1.6;&quot;&gt;- notificationProcessor: NotificationProcessor&lt;br/&gt;- orderProcessor: OrderProcessor&lt;br/&gt;- MAX_CANCEL_DURATION_IN_MINUTES: int&lt;br/&gt;- context: DbContext&lt;br/&gt;- paymentProcessor: PaymentProcessor&lt;/p&gt;&lt;hr size=&quot;1&quot;/&gt;&lt;p style=&quot;margin:0 0 0 4px;line-height:1.6;&quot;&gt;+ createCompoundOrder(CompoundOrderDto): void&lt;br/&gt;+ getAllOrders(): List&amp;lt;OrderResponseDto&amp;gt;&lt;br/&gt;+ CreateSimpleOrder(SimpleOrderDto): void&lt;br/&gt;+ cancelOrder(int): void&lt;br/&gt;+ getOrderById(int): Order&lt;br/&gt;+ getOrderDetails(int): String&lt;br/&gt;+ updateOrderStatus(UpdateOrderStatusDto): void&lt;/p&gt;" style="verticalAlign=top;align=left;overflow=fill;fontSize=14;fontFamily=Helvetica;html=1;rounded=0;shadow=0;comic=0;labelBackgroundColor=none;strokeWidth=1;" parent="1" vertex="1">
          <mxGeometry x="-326" y="942" width="593" height="522" as="geometry" />
        </mxCell>
        <mxCell id="node4" value="&lt;p style=&quot;margin:0px;margin-top:4px;text-align:center;&quot;&gt;&lt;b&gt;ProductController&lt;/b&gt;&lt;/p&gt;&lt;hr size=&quot;1&quot;/&gt;&lt;p style=&quot;margin:0 0 0 4px;line-height:1.6;&quot;&gt;- context: DbContext&lt;br/&gt;- productProcessor: ProductProcessor&lt;/p&gt;&lt;hr size=&quot;1&quot;/&gt;&lt;p style=&quot;margin:0 0 0 4px;line-height:1.6;&quot;&gt;+ removeProduct(int): void&lt;br/&gt;+ getAllProducts(): List&amp;lt;Product&amp;gt;&lt;br/&gt;+ getProductById(int): Product&lt;br/&gt;+ addProduct(ProductDto): void&lt;br/&gt;+ updateProductQuantity(UpdateProductQuantityDto): void&lt;/p&gt;" style="verticalAlign=top;align=left;overflow=fill;fontSize=14;fontFamily=Helvetica;html=1;rounded=0;shadow=0;comic=0;labelBackgroundColor=none;strokeWidth=1;" parent="1" vertex="1">
          <mxGeometry x="-324" y="240" width="669" height="327" as="geometry" />
        </mxCell>
      </root>
    </mxGraphModel>
  </diagram>
</mxfile>
